{
    "accessors": [
        {
            "bufferView": 0,
            "byteOffset": 0,
            "componentType": 5126,
            "count": 4790,
            "max": [
                0.9500880241394043,
                10.400116920471191,
                2.2702338695526123
            ],
            "min": [
                -1.228084921836853,
                -2.5088279247283936,
                -2.2934117317199707
            ],
            "type": "VEC3"
        },
        {
            "bufferView": 0,
            "byteOffset": 12,
            "componentType": 5126,
            "count": 4790,
            "type": "VEC3"
        },
        {
            "bufferView": 0,
            "byteOffset": 24,
            "componentType": 5126,
            "count": 4790,
            "type": "VEC2"
        },
        {
            "bufferView": 1,
            "componentType": 5121,
            "count": 4790,
            "type": "VEC4"
        },
        {
            "bufferView": 2,
            "componentType": 5126,
            "count": 4790,
            "type": "VEC4"
        },
        {
            "bufferView": 3,
            "componentType": 5126,
            "count": 4,
            "type": "MAT4"
        },
        {
            "bufferView": 4,
            "componentType": 5123,
            "count": 318,
            "type": "SCALAR"
        },
        {
            "bufferView": 5,
            "componentType": 5123,
            "count": 1953,
            "type": "SCALAR"
        },
        {
            "bufferView": 6,
            "componentType": 5123,
            "count": 1326,
            "type": "SCALAR"
        },
        {
            "bufferView": 7,
            "componentType": 5123,
            "count": 2370,
            "type": "SCALAR"
        },
        {
            "bufferView": 8,
            "componentType": 5123,
            "count": 1524,
            "type": "SCALAR"
        },
        {
            "bufferView": 9,
            "componentType": 5123,
            "count": 2844,
            "type": "SCALAR"
        },
        {
            "bufferView": 10,
            "componentType": 5123,
            "count": 1380,
            "type": "SCALAR"
        },
        {
            "bufferView": 11,
            "componentType": 5123,
            "count": 30,
            "type": "SCALAR"
        },
        {
            "bufferView": 12,
            "componentType": 5123,
            "count": 30,
            "type": "SCALAR"
        },
        {
            "bufferView": 13,
            "componentType": 5123,
            "count": 264,
            "type": "SCALAR"
        },
        {
            "bufferView": 14,
            "componentType": 5123,
            "count": 1035,
            "type": "SCALAR"
        }
    ],
    "asset": {
        "generator": "OpenAssetTools v0.21.1",
        "version": "2.0"
    },
    "bufferViews": [
        {
            "buffer": 0,
            "byteLength": 153280,
            "byteOffset": 0,
            "byteStride": 32,
            "target": 34962
        },
        {
            "buffer": 0,
            "byteLength": 19160,
            "byteOffset": 153280,
            "target": 34962
        },
        {
            "buffer": 0,
            "byteLength": 76640,
            "byteOffset": 172440,
            "target": 34962
        },
        {
            "buffer": 0,
            "byteLength": 256,
            "byteOffset": 249080
        },
        {
            "buffer": 0,
            "byteLength": 636,
            "byteOffset": 249336,
            "target": 34963
        },
        {
            "buffer": 0,
            "byteLength": 3906,
            "byteOffset": 249972,
            "target": 34963
        },
        {
            "buffer": 0,
            "byteLength": 2652,
            "byteOffset": 253878,
            "target": 34963
        },
        {
            "buffer": 0,
            "byteLength": 4740,
            "byteOffset": 256530,
            "target": 34963
        },
        {
            "buffer": 0,
            "byteLength": 3048,
            "byteOffset": 261270,
            "target": 34963
        },
        {
            "buffer": 0,
            "byteLength": 5688,
            "byteOffset": 264318,
            "target": 34963
        },
        {
            "buffer": 0,
            "byteLength": 2760,
            "byteOffset": 270006,
            "target": 34963
        },
        {
            "buffer": 0,
            "byteLength": 60,
            "byteOffset": 272766,
            "target": 34963
        },
        {
            "buffer": 0,
            "byteLength": 60,
            "byteOffset": 272826,
            "target": 34963
        },
        {
            "buffer": 0,
            "byteLength": 528,
            "byteOffset": 272886,
            "target": 34963
        },
        {
            "buffer": 0,
            "byteLength": 2070,
            "byteOffset": 273414,
            "target": 34963
        }
    ],
    "buffers": [
        {
            "byteLength": 275484,
            "uri": "data:application/octet-stream;base64,"
        }
    ],
    "images": [
        {
            "uri": "../images/~-gp_zom_moon_hacker_brass_c.dds"
        },
        {
            "uri": "../images/p_zom_moon_hacker_brass_n.dds"
        },
        {
            "uri": "../images/~-gp_zom_moon_hacker_leather_c.dds"
        },
        {
            "uri": "../images/p_zom_moon_hacker_leather_n.dds"
        },
        {
            "uri": "../images/~-gtesla_c.dds"
        },
        {
            "uri": "../images/tesla_n.dds"
        },
        {
            "uri": "../images/~-gvacuum_tube_c.dds"
        },
        {
            "uri": "../images/vacuum_tube_n.dds"
        },
        {
            "uri": "../images/$identitynormalmap.dds"
        }
    ],
    "materials": [
        {
            "doubleSided": true,
            "name": "mc/mtl_p_zom_moon_hacker_brass",
            "normalTexture": {
                "index": 1
            },
            "pbrMetallicRoughness": {
                "baseColorTexture": {
                    "index": 0
                },
                "metallicFactor": 0.0
            }
        },
        {
            "doubleSided": true,
            "name": "mc/mtl_p_zom_moon_hacker_leather",
            "normalTexture": {
                "index": 3
            },
            "pbrMetallicRoughness": {
                "baseColorTexture": {
                    "index": 2
                },
                "metallicFactor": 0.0
            }
        },
        {
            "doubleSided": true,
            "name": "mc/mtl_zombie_teleport_mainframe_shaft",
            "normalTexture": {
                "index": 5
            },
            "pbrMetallicRoughness": {
                "baseColorTexture": {
                    "index": 4
                },
                "metallicFactor": 0.0
            }
        },
        {
            "doubleSided": true,
            "name": "mc/mtl_vacuum_tube",
            "normalTexture": {
                "index": 7
            },
            "pbrMetallicRoughness": {
                "baseColorTexture": {
                    "index": 6
                },
                "metallicFactor": 0.0
            }
        },
        {
            "doubleSided": true,
            "name": "mc/mtl_vacuum_tube_filament_inside",
            "normalTexture": {
                "index": 8
            },
            "pbrMetallicRoughness": {
                "baseColorTexture": {
                    "index": 6
                },
                "metallicFactor": 0.0
            }
        },
        {
            "doubleSided": true,
            "name": "mc/mtl_vacuum_tube_glass",
            "normalTexture": {
                "index": 8
            },
            "pbrMetallicRoughness": {
                "baseColorTexture": {
                    "index": 6
                },
                "metallicFactor": 0.0
            }
        }
    ],
    "meshes": [
        {
            "primitives": [
                {
                    "attributes": {
                        "JOINTS_0": 3,
                        "NORMAL": 1,
                        "POSITION": 0,
                        "TEXCOORD_0": 2,
                        "WEIGHTS_0": 4
                    },
                    "indices": 6,
                    "material": 0,
                    "mode": 4
                }
            ]
        },
        {
            "primitives": [
                {
                    "attributes": {
                        "JOINTS_0": 3,
                        "NORMAL": 1,
                        "POSITION": 0,
                        "TEXCOORD_0": 2,
                        "WEIGHTS_0": 4
                    },
                    "indices": 7,
                    "material": 0,
                    "mode": 4
                }
            ]
        },
        {
            "primitives": [
                {
                    "attributes": {
                        "JOINTS_0": 3,
                        "NORMAL": 1,
                        "POSITION": 0,
                        "TEXCOORD_0": 2,
                        "WEIGHTS_0": 4
                    },
                    "indices": 8,
                    "material": 2,
                    "mode": 4
                }
            ]
        },
        {
            "primitives": [
                {
                    "attributes": {
                        "JOINTS_0": 3,
                        "NORMAL": 1,
                        "POSITION": 0,
                        "TEXCOORD_0": 2,
                        "WEIGHTS_0": 4
                    },
                    "indices": 9,
                    "material": 0,
                    "mode": 4
                }
            ]
        },
        {
            "primitives": [
                {
                    "attributes": {
                        "JOINTS_0": 3,
                        "NORMAL": 1,
                        "POSITION": 0,
                        "TEXCOORD_0": 2,
                        "WEIGHTS_0": 4
                    },
                    "indices": 10,
                    "material": 1,
                    "mode": 4
                }
            ]
        },
        {
            "primitives": [
                {
                    "attributes": {
                        "JOINTS_0": 3,
                        "NORMAL": 1,
                        "POSITION": 0,
                        "TEXCOORD_0": 2,
                        "WEIGHTS_0": 4
                    },
                    "indices": 11,
                    "material": 1,
                    "mode": 4
                }
            ]
        },
        {
            "primitives": [
                {
                    "attributes": {
                        "JOINTS_0": 3,
                        "NORMAL": 1,
                        "POSITION": 0,
                        "TEXCOORD_0": 2,
                        "WEIGHTS_0": 4
                    },
                    "indices": 12,
                    "material": 3,
                    "mode": 4
                }
            ]
        },
        {
            "primitives": [
                {
                    "attributes": {
                        "JOINTS_0": 3,
                        "NORMAL": 1,
                        "POSITION": 0,
                        "TEXCOORD_0": 2,
                        "WEIGHTS_0": 4
                    },
                    "indices": 13,
                    "material": 4,
                    "mode": 4
                }
            ]
        },
        {
            "primitives": [
                {
                    "attributes": {
                        "JOINTS_0": 3,
                        "NORMAL": 1,
                        "POSITION": 0,
                        "TEXCOORD_0": 2,
                        "WEIGHTS_0": 4
                    },
                    "indices": 14,
                    "material": 5,
                    "mode": 4
                }
            ]
        },
        {
            "primitives": [
                {
                    "attributes": {
                        "JOINTS_0": 3,
                        "NORMAL": 1,
                        "POSITION": 0,
                        "TEXCOORD_0": 2,
                        "WEIGHTS_0": 4
                    },
                    "indices": 15,
                    "material": 5,
                    "mode": 4
                }
            ]
        },
        {
            "primitives": [
                {
                    "attributes": {
                        "JOINTS_0": 3,
                        "NORMAL": 1,
                        "POSITION": 0,
                        "TEXCOORD_0": 2,
                        "WEIGHTS_0": 4
                    },
                    "indices": 16,
                    "material": 2,
                    "mode": 4
                }
            ]
        }
    ],
    "nodes": [
        {
            "children": [
                1,
                3
            ],
            "name": "j_gun",
            "rotation": [
                -8.557136332854043e-09,
                1.7114281547492283e-08,
                -2.928982227485839e-16,
                1.0
            ],
            "translation": [
                0.0,
                -2.384185791015625e-07,
                -0.0
            ]
        },
        {
            "children": [
                2
            ],
            "name": "j_lid",
            "rotation": [
                9.46527300982325e-10,
                -5.50024026324536e-10,
                3.6568874022471103e-17,
                1.0
            ],
            "translation": [
                -2.285040823224449e-09,
                7.105250358581543,
                0.033379197120666504
            ]
        },
        {
            "name": "j_lid2",
            "rotation": [
                -8.881784197001252e-16,
                -1.4197851783137594e-09,
                9.122417786986727e-17,
                1.0
            ],
            "translation": [
                2.8405429119970904e-08,
                3.9123220443725586,
                -0.4287159740924835
            ]
        },
        {
            "name": "j_tool",
            "rotation": [
                3.497140355079864e-10,
                -3.2796521054478944e-10,
                6.242871049280609e-18,
                1.0
            ],
            "translation": [
                -0.8387920260429382,
                5.259408950805664,
                -0.0574171245098114
            ]
        },
        {
            "mesh": 0,
            "name": "surf0",
            "skin": 0
        },
        {
            "mesh": 1,
            "name": "surf1",
            "skin": 0
        },
        {
            "mesh": 2,
            "name": "surf2",
            "skin": 0
        },
        {
            "mesh": 3,
            "name": "surf3",
            "skin": 0
        },
        {
            "mesh": 4,
            "name": "surf4",
            "skin": 0
        },
        {
            "mesh": 5,
            "name": "surf5",
            "skin": 0
        },
        {
            "mesh": 6,
            "name": "surf6",
            "skin": 0
        },
        {
            "mesh": 7,
            "name": "surf7",
            "skin": 0
        },
        {
            "mesh": 8,
            "name": "surf8",
            "skin": 0
        },
        {
            "mesh": 9,
            "name": "surf9",
            "skin": 0
        },
        {
            "mesh": 10,
            "name": "surf10",
            "skin": 0
        },
        {
            "children": [
                4,
                5,
                6,
                7,
                8,
                9,
                10,
                11,
                12,
                13,
                14,
                0
            ],
            "name": "t5_weapon_zom_moon_hacker_box_vm_lod0_skel"
        }
    ],
    "scene": 0,
    "scenes": [
        {
            "nodes": [
                15
            ]
        }
    ],
    "skins": [
        {
            "inverseBindMatrices": 5,
            "joints": [
                0,
                1,
                2,
                3
            ],
            "skeleton": 0
        }
    ],
    "textures": [
        {
            "source": 0
        },
        {
            "source": 1
        },
        {
            "source": 2
        },
        {
            "source": 3
        },
        {
            "source": 4
        },
        {
            "source": 5
        },
        {
            "source": 6
        },
        {
            "source": 7
        },
        {
            "source": 8
        }
    ]
}