{
    "accessors": [
        {
            "bufferView": 0,
            "byteOffset": 0,
            "componentType": 5126,
            "count": 4647,
            "max": [
                2.2702341079711914,
                12.700117111206055,
                1.2280850410461426
            ],
            "min": [
                -2.29341197013855,
                -0.20882800221443176,
                -0.9500880241394043
            ],
            "type": "VEC3"
        },
        {
            "bufferView": 0,
            "byteOffset": 12,
            "componentType": 5126,
            "count": 4647,
            "type": "VEC3"
        },
        {
            "bufferView": 0,
            "byteOffset": 24,
            "componentType": 5126,
            "count": 4647,
            "type": "VEC2"
        },
        {
            "bufferView": 1,
            "componentType": 5121,
            "count": 4647,
            "type": "VEC4"
        },
        {
            "bufferView": 2,
            "componentType": 5126,
            "count": 4647,
            "type": "VEC4"
        },
        {
            "bufferView": 3,
            "componentType": 5126,
            "count": 4,
            "type": "MAT4"
        },
        {
            "bufferView": 4,
            "componentType": 5123,
            "count": 330,
            "type": "SCALAR"
        },
        {
            "bufferView": 5,
            "componentType": 5123,
            "count": 1956,
            "type": "SCALAR"
        },
        {
            "bufferView": 6,
            "componentType": 5123,
            "count": 2370,
            "type": "SCALAR"
        },
        {
            "bufferView": 7,
            "componentType": 5123,
            "count": 1524,
            "type": "SCALAR"
        },
        {
            "bufferView": 8,
            "componentType": 5123,
            "count": 2844,
            "type": "SCALAR"
        },
        {
            "bufferView": 9,
            "componentType": 5123,
            "count": 1380,
            "type": "SCALAR"
        },
        {
            "bufferView": 10,
            "componentType": 5123,
            "count": 30,
            "type": "SCALAR"
        },
        {
            "bufferView": 11,
            "componentType": 5123,
            "count": 30,
            "type": "SCALAR"
        },
        {
            "bufferView": 12,
            "componentType": 5123,
            "count": 264,
            "type": "SCALAR"
        },
        {
            "bufferView": 13,
            "componentType": 5123,
            "count": 1038,
            "type": "SCALAR"
        },
        {
            "bufferView": 14,
            "componentType": 5123,
            "count": 1326,
            "type": "SCALAR"
        }
    ],
    "asset": {
        "generator": "OpenAssetTools v0.22.0",
        "version": "2.0"
    },
    "bufferViews": [
        {
            "buffer": 0,
            "byteLength": 148704,
            "byteOffset": 0,
            "byteStride": 32,
            "target": 34962
        },
        {
            "buffer": 0,
            "byteLength": 18588,
            "byteOffset": 148704,
            "target": 34962
        },
        {
            "buffer": 0,
            "byteLength": 74352,
            "byteOffset": 167292,
            "target": 34962
        },
        {
            "buffer": 0,
            "byteLength": 256,
            "byteOffset": 241644
        },
        {
            "buffer": 0,
            "byteLength": 660,
            "byteOffset": 241900,
            "target": 34963
        },
        {
            "buffer": 0,
            "byteLength": 3912,
            "byteOffset": 242560,
            "target": 34963
        },
        {
            "buffer": 0,
            "byteLength": 4740,
            "byteOffset": 246472,
            "target": 34963
        },
        {
            "buffer": 0,
            "byteLength": 3048,
            "byteOffset": 251212,
            "target": 34963
        },
        {
            "buffer": 0,
            "byteLength": 5688,
            "byteOffset": 254260,
            "target": 34963
        },
        {
            "buffer": 0,
            "byteLength": 2760,
            "byteOffset": 259948,
            "target": 34963
        },
        {
            "buffer": 0,
            "byteLength": 60,
            "byteOffset": 262708,
            "target": 34963
        },
        {
            "buffer": 0,
            "byteLength": 60,
            "byteOffset": 262768,
            "target": 34963
        },
        {
            "buffer": 0,
            "byteLength": 528,
            "byteOffset": 262828,
            "target": 34963
        },
        {
            "buffer": 0,
            "byteLength": 2076,
            "byteOffset": 263356,
            "target": 34963
        },
        {
            "buffer": 0,
            "byteLength": 2652,
            "byteOffset": 265432,
            "target": 34963
        }
    ],
    "buffers": [
        {
            "byteLength": 268084,
            "uri": "data:application/octet-stream;base64,"
        }
    ],
    "images": [
        {
            "uri": "../images/~-gp_zom_moon_hacker_brass_c.dds"
        },
        {
            "uri": "../images/p_zom_moon_hacker_brass_n.dds"
        },
        {
            "uri": "../images/~-gp_zom_moon_hacker_leather_c.dds"
        },
        {
            "uri": "../images/p_zom_moon_hacker_leather_n.dds"
        },
        {
            "uri": "../images/~-gvacuum_tube_c.dds"
        },
        {
            "uri": "../images/vacuum_tube_n.dds"
        },
        {
            "uri": "../images/$identitynormalmap.dds"
        },
        {
            "uri": "../images/~-gtesla_c.dds"
        },
        {
            "uri": "../images/tesla_n.dds"
        }
    ],
    "materials": [
        {
            "doubleSided": true,
            "name": "mc/mtl_p_zom_moon_hacker_brass",
            "normalTexture": {
                "index": 1
            },
            "pbrMetallicRoughness": {
                "baseColorTexture": {
                    "index": 0
                },
                "metallicFactor": 0.0
            }
        },
        {
            "doubleSided": true,
            "name": "mc/mtl_p_zom_moon_hacker_leather",
            "normalTexture": {
                "index": 3
            },
            "pbrMetallicRoughness": {
                "baseColorTexture": {
                    "index": 2
                },
                "metallicFactor": 0.0
            }
        },
        {
            "doubleSided": true,
            "name": "mc/mtl_vacuum_tube",
            "normalTexture": {
                "index": 5
            },
            "pbrMetallicRoughness": {
                "baseColorTexture": {
                    "index": 4
                },
                "metallicFactor": 0.0
            }
        },
        {
            "doubleSided": true,
            "name": "mc/mtl_vacuum_tube_filament_inside",
            "normalTexture": {
                "index": 6
            },
            "pbrMetallicRoughness": {
                "baseColorTexture": {
                    "index": 4
                },
                "metallicFactor": 0.0
            }
        },
        {
            "doubleSided": true,
            "name": "mc/mtl_vacuum_tube_glass",
            "normalTexture": {
                "index": 6
            },
            "pbrMetallicRoughness": {
                "baseColorTexture": {
                    "index": 4
                },
                "metallicFactor": 0.0
            }
        },
        {
            "doubleSided": true,
            "name": "mc/mtl_zombie_teleport_mainframe_shaft",
            "normalTexture": {
                "index": 8
            },
            "pbrMetallicRoughness": {
                "baseColorTexture": {
                    "index": 7
                },
                "metallicFactor": 0.0
            }
        }
    ],
    "meshes": [
        {
            "primitives": [
                {
                    "attributes": {
                        "JOINTS_0": 3,
                        "NORMAL": 1,
                        "POSITION": 0,
                        "TEXCOORD_0": 2,
                        "WEIGHTS_0": 4
                    },
                    "indices": 6,
                    "material": 0,
                    "mode": 4
                }
            ]
        },
        {
            "primitives": [
                {
                    "attributes": {
                        "JOINTS_0": 3,
                        "NORMAL": 1,
                        "POSITION": 0,
                        "TEXCOORD_0": 2,
                        "WEIGHTS_0": 4
                    },
                    "indices": 7,
                    "material": 0,
                    "mode": 4
                }
            ]
        },
        {
            "primitives": [
                {
                    "attributes": {
                        "JOINTS_0": 3,
                        "NORMAL": 1,
                        "POSITION": 0,
                        "TEXCOORD_0": 2,
                        "WEIGHTS_0": 4
                    },
                    "indices": 8,
                    "material": 0,
                    "mode": 4
                }
            ]
        },
        {
            "primitives": [
                {
                    "attributes": {
                        "JOINTS_0": 3,
                        "NORMAL": 1,
                        "POSITION": 0,
                        "TEXCOORD_0": 2,
                        "WEIGHTS_0": 4
                    },
                    "indices": 9,
                    "material": 1,
                    "mode": 4
                }
            ]
        },
        {
            "primitives": [
                {
                    "attributes": {
                        "JOINTS_0": 3,
                        "NORMAL": 1,
                        "POSITION": 0,
                        "TEXCOORD_0": 2,
                        "WEIGHTS_0": 4
                    },
                    "indices": 10,
                    "material": 1,
                    "mode": 4
                }
            ]
        },
        {
            "primitives": [
                {
                    "attributes": {
                        "JOINTS_0": 3,
                        "NORMAL": 1,
                        "POSITION": 0,
                        "TEXCOORD_0": 2,
                        "WEIGHTS_0": 4
                    },
                    "indices": 11,
                    "material": 2,
                    "mode": 4
                }
            ]
        },
        {
            "primitives": [
                {
                    "attributes": {
                        "JOINTS_0": 3,
                        "NORMAL": 1,
                        "POSITION": 0,
                        "TEXCOORD_0": 2,
                        "WEIGHTS_0": 4
                    },
                    "indices": 12,
                    "material": 3,
                    "mode": 4
                }
            ]
        },
        {
            "primitives": [
                {
                    "attributes": {
                        "JOINTS_0": 3,
                        "NORMAL": 1,
                        "POSITION": 0,
                        "TEXCOORD_0": 2,
                        "WEIGHTS_0": 4
                    },
                    "indices": 13,
                    "material": 4,
                    "mode": 4
                }
            ]
        },
        {
            "primitives": [
                {
                    "attributes": {
                        "JOINTS_0": 3,
                        "NORMAL": 1,
                        "POSITION": 0,
                        "TEXCOORD_0": 2,
                        "WEIGHTS_0": 4
                    },
                    "indices": 14,
                    "material": 4,
                    "mode": 4
                }
            ]
        },
        {
            "primitives": [
                {
                    "attributes": {
                        "JOINTS_0": 3,
                        "NORMAL": 1,
                        "POSITION": 0,
                        "TEXCOORD_0": 2,
                        "WEIGHTS_0": 4
                    },
                    "indices": 15,
                    "material": 5,
                    "mode": 4
                }
            ]
        },
        {
            "primitives": [
                {
                    "attributes": {
                        "JOINTS_0": 3,
                        "NORMAL": 1,
                        "POSITION": 0,
                        "TEXCOORD_0": 2,
                        "WEIGHTS_0": 4
                    },
                    "indices": 16,
                    "material": 5,
                    "mode": 4
                }
            ]
        }
    ],
    "nodes": [
        {
            "children": [
                1,
                2
            ],
            "name": "j_gun",
            "rotation": [
                0.0,
                0.0,
                -0.0,
                1.0
            ],
            "translation": [
                0.0,
                0.0,
                -0.0
            ]
        },
        {
            "children": [
                3
            ],
            "name": "j_lid",
            "rotation": [
                0.0,
                0.0,
                -0.0,
                1.0
            ],
            "translation": [
                0.0,
                7.105251789093018,
                -0.033378999680280685
            ]
        },
        {
            "name": "j_tool",
            "rotation": [
                0.0,
                0.0,
                -0.0,
                1.0
            ],
            "translation": [
                0.8387920260429382,
                5.2594099044799805,
                0.05741700157523155
            ]
        },
        {
            "name": "j_lid2",
            "rotation": [
                0.0,
                0.0,
                -0.0,
                1.0
            ],
            "translation": [
                0.0,
                3.9123215675354004,
                0.4287159740924835
            ]
        },
        {
            "mesh": 0,
            "name": "surf0",
            "skin": 0
        },
        {
            "mesh": 1,
            "name": "surf1",
            "skin": 0
        },
        {
            "mesh": 2,
            "name": "surf2",
            "skin": 0
        },
        {
            "mesh": 3,
            "name": "surf3",
            "skin": 0
        },
        {
            "mesh": 4,
            "name": "surf4",
            "skin": 0
        },
        {
            "mesh": 5,
            "name": "surf5",
            "skin": 0
        },
        {
            "mesh": 6,
            "name": "surf6",
            "skin": 0
        },
        {
            "mesh": 7,
            "name": "surf7",
            "skin": 0
        },
        {
            "mesh": 8,
            "name": "surf8",
            "skin": 0
        },
        {
            "mesh": 9,
            "name": "surf9",
            "skin": 0
        },
        {
            "mesh": 10,
            "name": "surf10",
            "skin": 0
        },
        {
            "children": [
                4,
                5,
                6,
                7,
                8,
                9,
                10,
                11,
                12,
                13,
                14,
                0
            ],
            "name": "t5_weapon_zom_moon_hacker_box_vm_lod0_skel"
        }
    ],
    "scene": 0,
    "scenes": [
        {
            "nodes": [
                15
            ]
        }
    ],
    "skins": [
        {
            "inverseBindMatrices": 5,
            "joints": [
                0,
                1,
                2,
                3
            ],
            "skeleton": 0
        }
    ],
    "textures": [
        {
            "source": 0
        },
        {
            "source": 1
        },
        {
            "source": 2
        },
        {
            "source": 3
        },
        {
            "source": 4
        },
        {
            "source": 5
        },
        {
            "source": 6
        },
        {
            "source": 7
        },
        {
            "source": 8
        }
    ]
}